<?xml version="1.0" ?><svg enable-background="new 0 0 32 32" version="1.1" viewBox="0 0 32 32" xml:space="preserve" xmlns="http://www.w3.org/2000/svg" xmlns:xlink="http://www.w3.org/1999/xlink"><g id="Layer_4"><g><polygon fill="#00D09C" points="16,0 2.5,0 2.5,24.5 16,32 29.5,24.5 29.5,0   "/><polygon points="16,1.422 3.871,1.422 3.871,23.47 16,30.208 28.129,23.47 28.129,1.422   "/><polygon fill="#FFFFFF" opacity="0.15" points="2.5,0 29.5,0 29.5,7.32 2.5,14.589   "/><polygon fill="#FFFFFF" opacity="0.3" points="2.5,0 29.5,0 29.5,3.66 2.5,10.929   "/></g></g><g id="Official"><path d="M13.892,22.123h3.357v-8.124h2.239l0.297-2.799h-2.536l0.003-1.402c0-0.73,0.07-1.121,1.117-1.121h1.4v-2.8   h-2.24c-2.69,0-3.637,1.358-3.637,3.642V11.2h-1.677V14h1.677V22.123z" fill="#FFFFFF"/></g></svg>