<?xml version="1.0" ?><svg enable-background="new 0 0 32 32" version="1.1" viewBox="0 0 32 32" xml:space="preserve" xmlns="http://www.w3.org/2000/svg" xmlns:xlink="http://www.w3.org/1999/xlink"><g id="Layer_4"><g><polygon fill="#00D09C" points="16,0 2.5,0 2.5,24.5 16,32 29.5,24.5 29.5,0   "/><polygon points="16,1.422 3.871,1.422 3.871,23.47 16,30.208 28.129,23.47 28.129,1.422   "/><polygon fill="#FFFFFF" opacity="0.15" points="2.5,0 29.5,0 29.5,7.32 2.5,14.589   "/><polygon fill="#FFFFFF" opacity="0.3" points="2.5,0 29.5,0 29.5,3.66 2.5,10.929   "/></g></g><g id="Official"><path d="M21.555,5.593h-11.11c-1.046,0-1.852,0.806-1.852,1.852v11.11c0,1.045,0.806,1.852,1.852,1.852h11.11   c1.045,0,1.852-0.806,1.852-1.852V7.445C23.407,6.399,22.6,5.593,21.555,5.593z M16.011,10.09c1.643,0,2.974,1.29,2.974,2.882   c0,1.591-1.331,2.882-2.974,2.882c-1.642,0-2.973-1.291-2.973-2.882C13.038,11.38,14.37,10.09,16.011,10.09z M21.555,18.092   c0,0.325-0.139,0.463-0.463,0.463H10.908c-0.324,0-0.463-0.138-0.463-0.463v-6.481l1.154,0.251   c-0.124,0.403-0.191,0.829-0.191,1.271c0,2.462,2.062,4.46,4.603,4.46c2.542,0,4.603-1.997,4.603-4.46   c0-0.442-0.067-0.868-0.191-1.271l1.132-0.251V18.092z M21.555,9.76c0,0.256-0.207,0.463-0.463,0.463H19.24   c-0.256,0-0.463-0.207-0.463-0.463V7.908c0-0.256,0.207-0.463,0.463-0.463h1.852c0.256,0,0.463,0.207,0.463,0.463V9.76z" fill="#FFFFFF"/></g></svg>