<?xml version="1.0" ?><svg enable-background="new 0 0 32 32" version="1.1" viewBox="0 0 32 32" xml:space="preserve" xmlns="http://www.w3.org/2000/svg" xmlns:xlink="http://www.w3.org/1999/xlink"><g id="Layer_4"><g><polygon fill="#00D09C" points="16,0 2.5,0 2.5,24.5 16,32 29.5,24.5 29.5,0   "/><polygon points="16,1.422 3.871,1.422 3.871,23.47 16,30.208 28.129,23.47 28.129,1.422   "/><polygon fill="#FFFFFF" opacity="0.15" points="2.5,0 29.5,0 29.5,7.32 2.5,14.589   "/><polygon fill="#FFFFFF" opacity="0.3" points="2.5,0 29.5,0 29.5,3.66 2.5,10.929   "/></g></g><g id="Official"><path d="M23.247,19.927v-5.36c0-2.872-1.533-4.208-3.577-4.208c-1.649,0-2.388,0.907-2.8,1.544v-1.324h-3.107   c0.041,0.877,0,9.348,0,9.348h3.107v-5.221c0-0.279,0.02-0.558,0.103-0.757c0.224-0.558,0.735-1.136,1.593-1.136   c1.125,0,1.574,0.857,1.574,2.113v5.001L23.247,19.927L23.247,19.927z M10.49,9.303c1.083,0,1.758-0.718,1.758-1.616   c-0.02-0.917-0.675-1.614-1.738-1.614S8.753,6.77,8.753,7.687c0,0.897,0.675,1.616,1.717,1.616H10.49z M12.043,19.927v-9.348H8.937   v9.348H12.043z" fill="#FFFFFF"/></g></svg>